<?xml version="1.0" encoding="UTF-8" standalone="no"?>
<!-- Created with Inkscape (http://www.inkscape.org/) -->

<svg
   width="128"
   height="128"
   viewBox="0 0 128 128"
   version="1.1"
   id="svg5"
   xml:space="preserve"
   xmlns:xlink="http://www.w3.org/1999/xlink"
   xmlns="http://www.w3.org/2000/svg"
   xmlns:svg="http://www.w3.org/2000/svg"><defs
     id="defs2"><linearGradient
       id="linearGradient447"><stop
         style="stop-color:#0055ff;stop-opacity:1;"
         offset="0"
         id="stop443" /><stop
         style="stop-color:#0046cc;stop-opacity:1;"
         offset="1"
         id="stop445" /></linearGradient><clipPath
       id="6e9067cc-f0d6-40c6-b994-868f456b6d73"><rect
         x="0"
         y="0"
         width="3.2"
         height="16"
         id="rect6637" /><rect
         x="0"
         y="10"
         width="16"
         height="6"
         id="rect6639" /><rect
         x="5"
         y="0"
         width="11"
         height="16"
         id="rect6641" /></clipPath><clipPath
       id="9de010af-6433-4b9a-892a-10e296e5c7b2"><rect
         x="0"
         y="2"
         width="16"
         height="8"
         id="rect6644" /></clipPath><linearGradient
       xlink:href="#linearGradient447"
       id="linearGradient449"
       x1="0"
       y1="0"
       x2="128"
       y2="128"
       gradientUnits="userSpaceOnUse" /></defs><rect
     style="fill:#003399;fill-opacity:1;stroke-width:2.26667;stroke-miterlimit:2"
     id="rect3973"
     width="68"
     height="68"
     x="60"
     y="60" /><circle
     style="fill:url(#linearGradient449);fill-opacity:1;stroke-width:2.13333;stroke-miterlimit:2"
     id="path183"
     cx="64"
     cy="64"
     r="64" /><g
     id="g6665"
     transform="matrix(0.81593194,0,0,0.81593194,111.18407,113.36814)"
     style="stroke:#eeeeec;stroke-opacity:1"><path
       fill="none"
       stroke="#000000"
       stroke-width="2"
       clip-path="url(#6e9067cc-f0d6-40c6-b994-868f456b6d73)"
       d="M 2,2 V 12 H 13 L 4,3"
       id="path6649"
       style="stroke:#eeeeec;stroke-opacity:1" /><path
       fill="none"
       stroke="#000000"
       stroke-width="2"
       clip-path="url(#9de010af-6433-4b9a-892a-10e296e5c7b2)"
       d="M 3,13 15,1"
       id="path6651"
       style="stroke:#eeeeec;stroke-opacity:1" /></g><path
     id="path7202"
     style="fill:#000000;fill-opacity:0.40000001;stroke-width:6"
     d="M 26,26 V 62 H 62 V 26 Z m 44,0 v 36 h 36 V 26 Z m -28,8 h 4 v 8 h 8 v 4 h -8 v 8 h -4 v -8 h -8 v -4 h 8 z m 36,8 h 20 v 4 H 78 Z M 26,70 v 36 H 62 V 70 Z m 44,0 v 36 h 36 V 70 Z m 18,8 a 1.9999999,1.9999999 0 0 1 2,2 1.9999999,1.9999999 0 0 1 -2,2 1.9999999,1.9999999 0 0 1 -2,-2 1.9999999,1.9999999 0 0 1 2,-2 z M 37.414062,78.589844 44,85.175782 50.582032,78.589844 53.417968,81.410156 46.828124,88 53.417968,94.59375 50.582032,97.414062 44,90.828124 37.414062,97.414062 34.59375,94.59375 41.179688,88 34.59375,81.410156 Z M 78,86 h 20 v 4 H 78 Z m 10,8 a 1.9999999,1.9999999 0 0 1 2,2 1.9999999,1.9999999 0 0 1 -2,2 1.9999999,1.9999999 0 0 1 -2,-2 1.9999999,1.9999999 0 0 1 2,-2 z" /><path
     id="rect1457"
     style="fill:#eeeeec;fill-opacity:1;stroke-width:6"
     d="M 24,24 V 60 H 60 V 24 Z m 44,0 v 36 h 36 V 24 Z m -28,8 h 4 v 8 h 8 v 4 h -8 v 8 h -4 v -8 h -8 v -4 h 8 z m 36,8 h 20 v 4 H 76 Z M 24,68 v 36 H 60 V 68 Z m 44,0 v 36 h 36 V 68 Z m 18,8 a 1.9999999,1.9999999 0 0 1 2,2 1.9999999,1.9999999 0 0 1 -2,2 1.9999999,1.9999999 0 0 1 -2,-2 1.9999999,1.9999999 0 0 1 2,-2 z M 35.414062,76.589844 42,83.175782 48.582032,76.589844 51.417968,79.410156 44.828124,86 51.417968,92.59375 48.582032,95.414062 42,88.828124 35.414062,95.414062 32.59375,92.59375 39.179688,86 32.59375,79.410156 Z M 76,84 h 20 v 4 H 76 Z m 10,8 a 1.9999999,1.9999999 0 0 1 2,2 1.9999999,1.9999999 0 0 1 -2,2 1.9999999,1.9999999 0 0 1 -2,-2 1.9999999,1.9999999 0 0 1 2,-2 z" /></svg>
