<?xml version="1.0" encoding="UTF-8" standalone="no"?>
<!-- Created with Inkscape (http://www.inkscape.org/) -->

<svg width="40" height="40" viewBox="0 0 10.583333 10.583334" version="1.1" id="svg1372"
   xmlns="http://www.w3.org/2000/svg" xmlns:svg="http://www.w3.org/2000/svg">
   <path id="rect1457" style="fill:#0055ff;fill-opacity:1;stroke-width:3"
      d="M 0 0 L 0 18 L 18 18 L 18 0 L 0 0 z M 22 0 L 22 18 L 40 18 L 40 0 L 22 0 z M 8 4 L 10 4 L 10 8 L 14 8 L 14 10 L 10 10 L 10 14 L 8 14 L 8 10 L 4 10 L 4 8 L 8 8 L 8 4 z M 26 8 L 36 8 L 36 10 L 26 10 L 26 8 z M 0 22 L 0 40 L 18 40 L 18 22 L 0 22 z M 22 22 L 22 40 L 40 40 L 40 22 L 22 22 z M 31 26 A 0.99999993 0.99999993 0 0 1 32 27 A 0.99999993 0.99999993 0 0 1 31 28 A 0.99999993 0.99999993 0 0 1 30 27 A 0.99999993 0.99999993 0 0 1 31 26 z M 5.7070312 26.294922 L 9 29.587891 L 12.291016 26.294922 L 13.708984 27.705078 L 10.414062 31 L 13.708984 34.296875 L 12.291016 35.707031 L 9 32.414062 L 5.7070312 35.707031 L 4.296875 34.296875 L 7.5898438 31 L 4.296875 27.705078 L 5.7070312 26.294922 z M 26 30 L 36 30 L 36 32 L 26 32 L 26 30 z M 31 34 A 0.99999993 0.99999993 0 0 1 32 35 A 0.99999993 0.99999993 0 0 1 31 36 A 0.99999993 0.99999993 0 0 1 30 35 A 0.99999993 0.99999993 0 0 1 31 34 z "
      transform="scale(0.26458333)" />
</svg>
