<?xml version="1.0" encoding="UTF-8" standalone="no"?>
<!-- Created with Inkscape (http://www.inkscape.org/) -->

<svg
   width="128"
   height="128"
   viewBox="0 0 128 128"
   version="1.1"
   id="svg5"
   xml:space="preserve"
   xmlns="http://www.w3.org/2000/svg"
   xmlns:svg="http://www.w3.org/2000/svg"><defs
     id="defs2"><clipPath
       id="6e9067cc-f0d6-40c6-b994-868f456b6d73"><rect
         x="0"
         y="0"
         width="3.2"
         height="16"
         id="rect6637" /><rect
         x="0"
         y="10"
         width="16"
         height="6"
         id="rect6639" /><rect
         x="5"
         y="0"
         width="11"
         height="16"
         id="rect6641" /></clipPath><clipPath
       id="9de010af-6433-4b9a-892a-10e296e5c7b2"><rect
         x="0"
         y="2"
         width="16"
         height="8"
         id="rect6644" /></clipPath></defs><g
     id="layer1"><rect
       style="fill:#003399;fill-opacity:1;stroke-width:2.26667;stroke-miterlimit:2"
       id="rect3973"
       width="68"
       height="68"
       x="60"
       y="60" /><circle
       style="fill:#0055ff;fill-opacity:1;stroke-width:2.13333;stroke-miterlimit:2"
       id="path183"
       cx="64"
       cy="64"
       r="64" /><g
       id="g6665"
       transform="matrix(0.81593194,0,0,0.81593194,111.18407,113.36814)"
       style="stroke:#eeeeec;stroke-opacity:1"><path
         fill="none"
         stroke="#000000"
         stroke-width="2"
         clip-path="url(#6e9067cc-f0d6-40c6-b994-868f456b6d73)"
         d="M 2,2 V 12 H 13 L 4,3"
         id="path6649"
         style="stroke:#eeeeec;stroke-opacity:1" /><path
         fill="none"
         stroke="#000000"
         stroke-width="2"
         clip-path="url(#9de010af-6433-4b9a-892a-10e296e5c7b2)"
         d="M 3,13 15,1"
         id="path6651"
         style="stroke:#eeeeec;stroke-opacity:1" /></g><g
       id="layer1-0"
       transform="matrix(7.5590554,0,0,7.5590554,24,24)"
       style="fill:#eeeeec;fill-opacity:1;fill-rule:nonzero"><path
         id="rect1457"
         style="fill:#eeeeec;fill-opacity:1;fill-rule:nonzero;stroke-width:0.79375"
         d="M 0,0 V 4.7624999 H 4.7624999 V 0 Z M 5.8208333,0 V 4.7624999 H 10.583333 V 0 Z M 2.1166666,1.0583333 H 2.6458333 V 2.1166666 H 3.7041666 V 2.6458333 H 2.6458333 V 3.7041666 H 2.1166666 V 2.6458333 H 1.0583333 V 2.1166666 h 1.0583333 z m 4.7625,1.0583333 H 9.5249999 V 2.6458333 H 6.8791666 Z M 0,5.8208333 V 10.583333 H 4.7624999 V 5.8208333 Z m 5.8208333,0 V 10.583333 H 10.583333 V 5.8208333 Z M 8.2020832,6.8791666 A 0.26458331,0.26458331 0 0 1 8.4666666,7.1437499 0.26458331,0.26458331 0 0 1 8.2020832,7.4083332 0.26458331,0.26458331 0 0 1 7.9374999,7.1437499 0.26458331,0.26458331 0 0 1 8.2020832,6.8791666 Z M 1.5099853,6.957198 2.38125,7.8284627 3.2519979,6.957198 3.6271686,7.3303018 2.7553872,8.2020832 3.6271686,9.0743814 3.2519979,9.4474852 2.38125,8.5762205 1.5099853,9.4474852 1.1368815,9.0743814 2.0081461,8.2020832 1.1368815,7.3303018 Z M 6.8791666,7.9374999 H 9.5249999 V 8.4666666 H 6.8791666 Z M 8.2020832,8.9958332 A 0.26458331,0.26458331 0 0 1 8.4666666,9.2604165 0.26458331,0.26458331 0 0 1 8.2020832,9.5249999 0.26458331,0.26458331 0 0 1 7.9374999,9.2604165 0.26458331,0.26458331 0 0 1 8.2020832,8.9958332 Z" /></g></g></svg>
